<?xml version="1.0" standalone="no"?>
<!DOCTYPE svg PUBLIC "-//W3C//DTD SVG 20010904//EN"
 "http://www.w3.org/TR/2001/REC-SVG-20010904/DTD/svg10.dtd">
<svg version="1.0" xmlns="http://www.w3.org/2000/svg"
 width="575.000000pt" height="580.000000pt" viewBox="0 0 575.000000 580.000000"
 preserveAspectRatio="xMidYMid meet">

<g transform="translate(0.000000,580.000000) scale(0.100000,-0.100000)"
fill="#BE185D" stroke="none">
<path d="M0 2900 l0 -2900 2875 0 2875 0 0 2900 0 2900 -2875 0 -2875 0 0
-2900z m1185 2809 c76 -21 145 -115 145 -197 0 -40 -36 -127 -80 -193 -95
-143 -123 -220 -124 -344 -1 -84 0 -91 22 -100 26 -11 26 -11 12 -177 -5 -68
-17 -215 -25 -328 -9 -113 -19 -231 -22 -262 -4 -37 -2 -58 4 -58 20 0 31 56
42 210 25 335 49 588 57 602 3 5 10 8 16 8 16 0 1 -304 -33 -668 -12 -123 -8
-152 15 -120 13 18 19 78 36 388 15 270 22 374 27 383 2 4 13 7 25 7 19 0 20
-4 14 -72 -3 -40 -8 -116 -11 -168 -11 -212 -25 -438 -30 -482 -5 -38 -3 -48
9 -48 8 0 17 8 20 18 7 24 15 143 21 312 7 203 15 348 21 398 4 34 9 42 22 40
15 -3 17 -18 14 -138 -2 -74 -7 -196 -13 -270 -10 -148 -12 -334 -4 -342 3 -3
25 -2 48 3 73 14 219 37 307 49 47 6 99 13 115 16 17 3 73 9 125 14 52 6 109
12 125 15 50 7 349 24 560 31 200 6 745 -10 840 -25 38 -6 6 -9 -140 -14 -104
-4 -287 -11 -405 -17 -260 -12 -323 -13 -316 -1 3 4 101 12 218 16 381 14 394
22 38 23 -184 1 -391 -3 -460 -8 -69 -6 -190 -15 -270 -21 -80 -5 -174 -14
-210 -19 -36 -5 -111 -15 -167 -22 -56 -6 -100 -14 -98 -17 1 -4 -18 -7 -43
-9 -25 -1 -49 -6 -52 -11 -3 -5 -20 -7 -37 -6 -26 1 -31 -1 -22 -12 9 -10 6
-13 -18 -13 -16 0 -34 5 -40 11 -8 8 -13 8 -17 0 -4 -6 0 -11 10 -11 13 0 14
-3 4 -15 -14 -17 -35 -21 -25 -5 3 6 2 10 -4 10 -16 0 -22 -18 -9 -24 7 -4 3
-4 -10 -2 -27 5 -20 -9 8 -17 11 -3 18 -1 14 4 -3 5 -3 9 0 9 2 0 12 3 22 7
12 4 15 3 10 -5 -4 -7 -2 -12 3 -12 6 0 11 9 11 21 0 16 5 20 23 17 12 -2 21
-9 20 -15 -2 -9 4 -10 22 -3 14 5 32 7 40 4 8 -4 15 -2 15 4 0 5 16 8 35 6 19
-1 35 1 35 6 0 5 26 11 58 15 31 3 102 12 157 20 142 20 256 33 440 50 255 23
285 25 285 16 0 -5 -46 -12 -102 -15 -151 -10 -425 -39 -528 -56 -30 -5 -89
-15 -130 -21 -97 -15 -369 -65 -440 -82 l-55 -12 -7 -70 c-3 -39 -11 -200 -18
-360 -10 -265 -21 -519 -35 -840 -3 -66 -8 -151 -10 -190 -3 -38 -12 -243 -20
-455 -8 -212 -20 -499 -26 -637 -6 -139 -9 -272 -5 -295 l6 -43 -303 -99
c-166 -54 -308 -101 -314 -104 -17 -6 -17 45 -1 62 15 13 150 68 218 87 83 23
88 34 100 214 5 71 14 195 20 275 5 80 14 208 20 285 9 130 24 323 35 455 8
106 26 348 45 645 11 165 24 345 30 400 5 55 12 138 15 185 3 47 10 132 15
190 6 58 10 134 10 170 0 60 -1 63 -16 48 -17 -17 -30 -123 -52 -435 -5 -73
-15 -139 -21 -147 -6 -7 -33 -21 -59 -30 -26 -10 -56 -21 -67 -26 -11 -5 -49
-21 -85 -36 -281 -119 -468 -389 -470 -676 0 -144 41 -290 135 -477 29 -59 61
-134 70 -166 35 -119 -3 -232 -126 -370 -38 -44 -91 -108 -116 -143 -45 -63
-113 -202 -113 -233 0 -9 -7 -32 -15 -50 l-15 -34 6 40 c15 94 79 233 152 334
24 33 31 53 30 83 -1 25 4 43 13 49 8 5 10 9 4 9 -5 1 -40 3 -77 6 l-66 5 -17
-58 c-9 -32 -21 -76 -27 -98 -7 -22 -15 -44 -18 -50 -4 -5 -20 -48 -35 -95
-16 -47 -30 -79 -33 -72 -2 7 4 32 13 55 23 55 91 263 99 303 7 30 8 30 69 30
75 1 117 20 152 72 59 86 57 180 -5 242 -31 31 -51 41 -115 56 l-77 18 8 31
c10 34 9 174 -1 421 -8 186 2 255 57 391 75 185 248 345 475 439 115 48 149
68 165 97 6 11 14 93 19 181 5 89 14 192 19 230 6 38 7 73 3 77 -7 6 -98 -26
-318 -112 -75 -30 -295 -136 -432 -210 -34 -18 -65 -30 -68 -27 -4 3 -9 31
-12 61 -5 53 -4 57 25 84 18 16 51 36 74 45 24 9 93 37 153 63 61 25 162 67
225 91 63 25 129 51 145 58 17 7 46 19 65 26 83 31 140 60 149 77 11 22 42
354 57 619 6 111 6 112 -17 124 -33 18 -39 29 -39 73 0 32 -3 37 -22 37 -13 0
-40 3 -60 6 -34 6 -39 4 -47 -19 -14 -36 -27 -41 -77 -27 -82 23 -107 88 -54
141 26 27 35 30 82 27 49 -3 53 -5 56 -30 3 -23 9 -28 40 -33 86 -14 79 -17
91 44 6 31 12 73 14 94 l3 37 -46 1 c-66 2 -73 0 -96 -28 -17 -21 -25 -24 -52
-19 -56 13 -108 89 -91 134 10 27 68 54 101 48 13 -3 29 -5 36 -5 6 -1 12 -9
12 -20 0 -24 15 -35 71 -50 78 -22 93 -8 250 224 20 30 39 70 42 89 23 144
-144 222 -232 110 -30 -38 -26 -71 13 -110 55 -55 108 -41 79 21 -20 41 -12
65 22 65 40 0 75 -44 75 -94 0 -23 -6 -48 -13 -56 -55 -70 -167 -65 -230 9
-23 28 -27 42 -27 94 0 82 23 120 93 152 58 27 92 30 152 14z m442 -426 c53
-66 25 -124 -66 -139 -36 -6 -40 -4 -55 24 -17 32 -34 42 -74 42 -41 0 -72 11
-72 25 0 14 31 25 75 25 51 0 73 11 80 37 6 23 9 25 48 20 30 -4 48 -14 64
-34z m-32 -240 c54 -57 54 -114 0 -140 -41 -20 -78 -11 -113 25 -19 18 -44 30
-82 37 -39 7 -56 15 -58 28 -3 14 5 17 52 17 47 0 63 5 98 30 51 37 70 38 103
3z m172 -939 c-3 -3 -12 -4 -19 -1 -8 3 -5 6 6 6 11 1 17 -2 13 -5z m-212 -14
c3 -5 1 -10 -4 -10 -6 0 -11 5 -11 10 0 6 2 10 4 10 3 0 8 -4 11 -10z m1270
-241 c158 -38 283 -90 386 -159 85 -57 215 -190 279 -287 29 -43 152 -279 274
-525 121 -247 225 -448 229 -448 4 0 29 46 56 103 90 189 218 461 274 577 30
63 69 147 87 185 155 333 179 376 241 437 100 98 167 118 400 118 l166 0 -11
-34 c-6 -19 -15 -32 -20 -29 -5 4 -7 -1 -3 -10 6 -16 -8 -34 -16 -20 -2 5 -2
2 0 -5 3 -13 -55 -162 -67 -172 -3 -3 -23 -45 -44 -95 -21 -49 -43 -99 -50
-110 -7 -11 -20 -38 -28 -60 -15 -37 -271 -598 -338 -740 -15 -33 -64 -139
-108 -235 -99 -217 -136 -297 -174 -379 -16 -35 -37 -82 -45 -105 -22 -54 -53
-101 -77 -116 -14 -9 -84 -12 -250 -11 l-231 0 -22 28 c-13 16 -23 31 -23 34
0 11 -187 393 -202 412 -12 16 -17 13 -55 -40 -127 -179 -316 -320 -513 -381
-144 -46 -214 -55 -373 -49 -135 4 -163 8 -252 36 -55 17 -139 52 -187 76 -48
25 -91 45 -96 45 -6 0 -12 -85 -14 -207 -3 -144 -8 -217 -18 -238 -53 -120
-85 -168 -153 -232 -49 -46 -180 -114 -227 -118 -8 -1 -28 -5 -44 -10 -52 -15
-56 4 -55 225 1 107 1 440 0 740 -1 668 7 950 27 950 4 0 7 15 8 33 2 94 101
324 179 414 5 7 30 36 55 65 143 171 368 294 625 342 93 18 330 15 410 -5z
m173 -2377 c37 -24 55 -71 60 -156 5 -87 -10 -174 -36 -203 -42 -45 -143 -58
-198 -24 -50 30 -64 74 -64 196 0 145 20 185 105 206 39 10 103 1 133 -19z
m-758 -77 l0 -95 110 0 110 0 0 95 c0 89 1 95 20 95 20 0 20 -5 18 -207 -3
-189 -5 -208 -20 -211 -16 -3 -18 6 -18 92 l0 96 -110 0 -110 0 0 -95 c0 -88
-1 -95 -20 -95 -19 0 -20 7 -20 210 0 203 1 210 20 210 19 0 20 -7 20 -95z
m410 -116 c0 -195 -1 -210 -17 -207 -16 3 -18 22 -21 211 -2 202 -2 207 18
207 19 0 20 -6 20 -211z m603 114 c35 -54 86 -132 113 -173 l49 -75 3 173 c2
164 3 172 22 172 20 0 20 -6 18 -207 -4 -271 -2 -270 -145 -49 -60 91 -111
166 -115 166 -4 0 -9 -73 -10 -162 -3 -137 -5 -163 -18 -163 -13 0 -15 31 -18
208 -2 202 -2 207 18 207 15 0 38 -27 83 -97z m511 -5 c70 -189 107 -293 109
-303 1 -5 -7 -11 -18 -13 -17 -2 -24 7 -39 48 l-18 51 -100 -3 -100 -3 -17
-45 c-11 -29 -23 -45 -34 -45 -9 0 -18 4 -18 8 -1 4 31 98 71 208 70 190 74
199 99 199 25 0 30 -8 65 -102z m-3663 -215 c-9 -16 -10 -16 -11 -1 0 9 3 25
7 35 7 16 8 17 11 1 2 -10 -1 -25 -7 -35z m4329 -35 l45 -21 -50 -16 c-131
-42 -328 -174 -535 -360 l-45 -40 28 -26 c15 -14 27 -34 27 -45 0 -20 -38 -90
-48 -90 -4 0 -22 9 -41 21 -29 17 -32 24 -27 50 3 16 2 29 -3 29 -7 0 -152
-152 -233 -245 -85 -98 -155 -208 -167 -264 -7 -34 -9 -36 -41 -33 -99 10
-159 96 -146 208 9 75 45 170 133 346 84 170 116 253 108 279 -9 27 -61 33
-162 19 -288 -38 -560 -141 -685 -258 -56 -53 -69 -95 -42 -137 39 -59 143
-87 322 -84 68 1 125 -1 128 -3 10 -10 -28 -31 -69 -39 -62 -11 -206 7 -299
38 -109 36 -168 89 -168 152 0 23 7 55 15 70 22 44 106 113 194 159 201 107
609 198 736 163 47 -12 104 -52 122 -84 33 -59 4 -186 -88 -383 -52 -113 -89
-216 -89 -250 0 -24 6 -18 49 42 133 190 529 573 735 712 90 62 109 72 181
102 33 14 68 11 115 -12z m-4343 -100 c-1 -117 7 -159 54 -269 25 -58 95 -157
143 -201 16 -16 26 -31 23 -35 -10 -10 -53 33 -102 102 -83 117 -135 262 -135
378 0 57 9 137 15 137 2 0 3 -51 2 -112z m102 -54 c0 -53 5 -112 11 -130 7
-19 10 -40 7 -47 -7 -20 -26 63 -33 144 -6 69 -1 129 11 129 2 0 4 -43 4 -96z
m4354 -151 c21 -15 43 -35 48 -45 11 -21 1 -47 -125 -317 -47 -102 -86 -190
-86 -198 0 -33 57 -1 122 68 77 81 95 108 108 164 7 30 16 55 20 55 4 0 26
-14 48 -30 28 -20 42 -38 42 -53 0 -12 -18 -59 -40 -105 -55 -114 -52 -132 11
-64 76 80 117 139 135 192 10 30 20 57 21 59 5 8 83 -56 89 -72 5 -17 11 -14
46 23 22 23 51 45 64 51 33 12 87 -10 109 -45 17 -25 16 -28 -35 -131 -29 -58
-50 -108 -46 -112 8 -9 68 52 154 159 34 42 76 87 93 99 60 42 175 35 200 -13
17 -31 -5 -45 -27 -19 -23 26 -38 26 -80 1 -28 -18 -144 -182 -144 -204 0 -33
106 62 162 146 16 23 32 43 36 43 14 0 71 -39 76 -51 3 -7 -10 -43 -29 -81
-59 -119 -14 -102 93 34 36 47 58 68 60 58 5 -23 -39 -92 -105 -164 -50 -55
-64 -64 -93 -64 -43 0 -70 32 -70 83 l0 38 -64 -64 c-40 -40 -72 -64 -86 -64
-36 0 -80 32 -80 57 0 30 -4 29 -43 -8 -53 -52 -96 -59 -132 -23 -22 23 -18
69 16 168 16 48 28 93 26 99 -5 17 -82 -59 -132 -133 -34 -49 -49 -81 -52
-114 -5 -43 -7 -45 -32 -40 -41 10 -60 33 -63 77 l-3 41 -29 -42 c-29 -43 -81
-82 -108 -82 -9 0 -28 10 -43 22 -25 19 -27 25 -21 67 l6 45 -47 -45 c-80 -76
-135 -99 -187 -80 -35 14 -42 35 -28 85 6 22 9 43 6 45 -2 3 -19 -9 -37 -26
-40 -38 -88 -63 -122 -63 -15 0 -40 -9 -56 -20 -67 -49 -183 -29 -203 35 -6
17 -11 32 -12 34 -2 2 -17 -13 -35 -33 -45 -52 -84 -71 -118 -56 -51 21 -54
41 -26 138 15 48 33 112 41 142 8 30 17 56 20 59 9 10 89 -56 92 -76 2 -11
-15 -59 -37 -107 -44 -92 -48 -110 -28 -104 16 6 138 148 180 211 53 79 136
105 209 66 52 -28 61 -128 18 -203 l-21 -38 23 8 c31 9 60 33 111 90 34 38 53
76 89 174 43 119 86 241 94 268 5 17 13 15 57 -15z m-4304 -104 c13 -33 51
-103 87 -156 35 -53 63 -98 61 -99 -7 -7 -77 48 -72 55 3 5 -14 47 -38 93 -52
104 -67 138 -67 155 0 25 7 13 29 -48z m4499 -49 c39 -24 42 -56 11 -106 -11
-19 -23 -34 -25 -34 -17 0 -63 33 -66 47 -5 24 24 113 37 113 6 0 25 -9 43
-20z m-2633 -410 c532 -18 568 -20 572 -23 2 -2 -79 -7 -179 -11 -101 -3 -293
-11 -428 -16 -135 -5 -438 -12 -674 -15 -378 -5 -428 -4 -423 9 4 9 -1 20 -11
25 -16 10 -16 10 0 11 11 0 15 5 12 15 -5 13 45 15 417 15 233 0 555 -4 714
-10z"/>
<path d="M1291 5554 c0 -11 3 -14 6 -6 3 7 2 16 -1 19 -3 4 -6 -2 -5 -13z"/>
<path d="M1146 5517 c3 -10 9 -15 12 -12 3 3 0 11 -7 18 -10 9 -11 8 -5 -6z"/>
<path d="M1296 5493 c-6 -14 -5 -15 5 -6 7 7 10 15 7 18 -3 3 -9 -2 -12 -12z"/>
<path d="M1318 4063 c7 -3 16 -2 19 1 4 3 -2 6 -13 5 -11 0 -14 -3 -6 -6z"/>
<path d="M1490 4050 c0 -5 5 -10 10 -10 6 0 10 5 10 10 0 6 -4 10 -10 10 -5 0
-10 -4 -10 -10z"/>
<path d="M1323 4015 c0 -8 4 -15 9 -15 4 0 8 4 8 9 0 6 -4 12 -8 15 -5 3 -9
-1 -9 -9z"/>
<path d="M1278 3945 c-10 -20 -18 -76 -22 -165 -4 -74 -11 -211 -16 -305 -10
-158 -15 -244 -40 -610 -5 -77 -14 -225 -20 -330 -6 -104 -15 -264 -20 -355
-5 -91 -14 -255 -20 -365 -6 -110 -18 -293 -26 -406 -7 -113 -14 -229 -14
-257 l0 -52 40 0 c22 0 40 1 40 3 1 1 3 43 5 92 17 323 26 532 35 760 5 143
12 312 15 375 8 181 14 335 25 615 6 143 15 346 20 450 5 105 12 251 15 325 4
74 8 153 10 175 2 22 0 49 -4 60 -7 18 -9 17 -23 -10z"/>
<path d="M1187 3913 c-9 -17 -18 -101 -26 -218 -14 -222 -26 -381 -47 -630 -8
-99 -17 -209 -19 -245 -12 -167 -26 -366 -35 -485 -5 -71 -15 -200 -21 -285
-5 -85 -15 -209 -20 -275 -8 -104 -19 -253 -44 -602 -6 -87 -2 -98 39 -87 37
9 43 42 56 289 6 121 17 306 25 410 13 183 23 348 45 745 20 362 48 831 60
985 5 66 12 189 15 273 6 155 0 182 -28 125z"/>
<path d="M292 3717 c-34 -12 -76 -35 -93 -51 -27 -26 -30 -35 -26 -69 3 -21 7
-41 10 -43 8 -8 141 61 179 93 14 12 13 93 -1 93 -3 0 -34 -11 -69 -23z"/>
<path d="M365 2916 c-35 -41 -64 -118 -91 -241 -14 -65 -16 -106 -11 -228 4
-81 12 -158 18 -169 12 -22 7 -194 -6 -234 -6 -19 -2 -22 42 -27 26 -3 55 -1
63 4 11 7 8 8 -10 4 -18 -5 -21 -3 -11 3 10 8 13 36 12 118 0 59 -3 109 -6
112 -3 3 -1 10 4 16 5 6 3 37 -5 71 -22 106 -27 261 -11 351 8 44 13 94 11
110 -4 24 -3 26 5 9 8 -16 9 -11 8 21 -1 23 -5 40 -9 37 -11 -6 -10 5 3 29 12
23 9 32 -6 14z"/>
<path d="M1533 5289 c-7 -7 -13 -18 -13 -25 0 -7 -17 -16 -37 -22 -26 -7 -31
-10 -16 -11 15 -1 31 -15 48 -40 23 -38 26 -39 57 -30 49 14 71 41 63 77 -3
17 -12 35 -19 41 -21 18 -70 23 -83 10z"/>
<path d="M1512 5038 c-13 -6 -21 -17 -18 -23 2 -7 0 -17 -6 -23 -8 -8 -8 -16
2 -27 7 -8 9 -15 4 -15 -23 -1 41 -40 65 -40 62 1 82 63 36 113 -28 29 -46 32
-83 15z"/>
<path d="M2500 3363 c-50 -9 -147 -42 -186 -63 -135 -75 -221 -182 -274 -340
-18 -55 -24 -217 -11 -283 40 -191 219 -373 416 -426 235 -62 507 42 636 242
65 101 84 172 84 322 0 126 -1 132 -32 198 -67 141 -165 252 -267 302 -91 44
-259 66 -366 48z"/>
<path d="M1542 2865 c0 -47 2 -72 7 -60 4 11 4 47 1 80 l-7 60 -1 -80z"/>
<path d="M1563 1685 c0 -22 2 -30 4 -17 2 12 2 30 0 40 -3 9 -5 -1 -4 -23z"/>
<path d="M1562 1530 c0 -19 2 -27 5 -17 2 9 2 25 0 35 -3 9 -5 1 -5 -18z"/>
<path d="M1570 1141 c0 -5 5 -13 10 -16 6 -3 10 -2 10 4 0 5 -4 13 -10 16 -5
3 -10 2 -10 -4z"/>
<path d="M2851 1446 c-41 -23 -50 -53 -51 -168 0 -100 2 -108 26 -137 23 -27
32 -31 77 -31 29 0 60 7 69 14 29 22 48 82 48 152 0 84 -16 140 -48 165 -29
22 -86 25 -121 5z"/>
<path d="M3661 1348 c-53 -149 -56 -138 32 -138 42 0 78 4 81 9 6 9 -67 221
-77 221 -1 0 -18 -42 -36 -92z"/>
<path d="M4056 525 c-19 -20 -21 -35 -3 -35 7 0 18 -5 25 -12 9 -9 5 -19 -20
-45 -31 -32 -32 -35 -17 -61 8 -15 21 -27 29 -27 20 0 62 110 58 154 -3 30 -7
36 -29 39 -15 2 -34 -4 -43 -13z"/>
<path d="M3990 285 c0 -15 6 -25 14 -25 22 0 30 19 16 35 -18 22 -30 18 -30
-10z"/>
</g>
</svg>
